<svg width="10" height="6" viewBox="0 0 10 6" fill="none" xmlns="http://www.w3.org/2000/svg">
<path d="M1.94206 0.587086C1.65145 0.332125 1.20917 0.361024 0.954213 0.651633C0.699252 0.942243 0.72815 1.38451 1.01876 1.63948L1.94206 0.587086ZM5.12825 4.31366L4.66661 4.83985L5.1283 5.24491L5.58995 4.83981L5.12825 4.31366ZM9.23715 1.63944C9.52774 1.38445 9.5566 0.942174 9.30161 0.651587C9.04662 0.361 8.60435 0.33214 8.31376 0.587127L9.23715 1.63944ZM1.01876 1.63948L4.66661 4.83985L5.5899 3.78746L1.94206 0.587086L1.01876 1.63948ZM5.58995 4.83981L9.23715 1.63944L8.31376 0.587127L4.66656 3.7875L5.58995 4.83981Z" fill="white"/>
</svg>
