<svg width="19" height="15" viewBox="0 0 19 15" fill="none" xmlns="http://www.w3.org/2000/svg">
<path opacity="0.3" d="M18.3979 2.41449C17.723 2.70013 17.007 2.88765 16.274 2.97084C17.0364 2.53297 17.6229 1.84099 17.8989 1.01526C17.173 1.42694 16.3788 1.71699 15.5507 1.87286C14.8517 1.15947 13.8743 0.755389 12.8517 0.757085C10.8103 0.757085 9.15349 2.33909 9.15349 4.29061C9.15349 4.5679 9.18615 4.83816 9.25009 5.09623C6.17627 4.94862 3.45203 3.54236 1.62775 1.404C1.30922 1.92529 1.12752 2.53297 1.12752 3.18076C1.12752 4.40623 1.78012 5.48805 2.77218 6.12188C2.18482 6.10468 1.61034 5.95309 1.09693 5.67983V5.7249C1.09693 7.43659 2.37177 8.86495 4.06266 9.19027C3.51808 9.3312 2.9471 9.35187 2.39293 9.25072C2.86372 10.6549 4.22986 11.6764 5.84738 11.7061C4.58198 12.6524 2.98768 13.2184 1.25471 13.2184C0.960031 13.2181 0.665618 13.2015 0.372925 13.1689C2.00931 14.1713 3.95353 14.7571 6.04172 14.7571C12.8437 14.7571 16.5626 9.37118 16.5626 4.70056C16.5626 4.54779 16.5626 4.39502 16.5511 4.24335C17.2748 3.74295 17.8997 3.12372 18.3968 2.41449H18.3979Z" fill="white"/>
</svg>
